<svg width="269" height="73" viewBox="0 0 269 73" fill="none" xmlns="http://www.w3.org/2000/svg">
<path d="M71.0806 72.5665H69.6387V65.2798H71.0806V72.5665Z" fill="white"/>
<path d="M75.3201 65.2923C75.36 65.2986 75.3998 65.3049 75.4331 65.3237C75.4663 65.3362 75.4995 65.3613 75.5327 65.3864C75.5659 65.4177 75.5992 65.4554 75.639 65.4992L79.6924 70.3717C79.6791 70.2526 79.6659 70.1397 79.6659 70.0268C79.6592 69.9139 79.6592 69.8073 79.6592 69.7133V65.286H80.9217V72.5728H80.1775C80.0646 72.5728 79.9715 72.554 79.8918 72.5226C79.8187 72.4913 79.7456 72.4285 79.6725 72.3408L75.639 67.4871C75.6523 67.5937 75.659 67.7003 75.6656 67.8069C75.6723 67.9135 75.6723 68.0076 75.6723 68.0954V72.5665H74.4097V65.2798H75.1606C75.2204 65.2861 75.2736 65.286 75.3201 65.2923Z" fill="white"/>
<path d="M89.507 65.2861V66.4023H87.1812V72.5729H85.7459V66.4023H83.4136V65.2861H89.507Z" fill="white"/>
<path d="M96.8828 65.2861V66.3647H93.4607V68.3839H96.1585V69.4249H93.4607V71.488H96.8828V72.5729H92.0121V65.2861H96.8828Z" fill="white"/>
<path d="M101.202 69.7195V72.5665H99.7667V65.2798H102.119C102.644 65.2798 103.096 65.33 103.475 65.4366C103.847 65.5369 104.159 65.6811 104.398 65.8692C104.637 66.0511 104.817 66.2769 104.93 66.534C105.043 66.7911 105.096 67.0732 105.096 67.3805C105.096 67.6251 105.056 67.8571 104.983 68.0766C104.91 68.2961 104.797 68.4904 104.651 68.6723C104.505 68.8542 104.332 69.0047 104.119 69.1426C103.906 69.2743 103.667 69.3872 103.395 69.4624C103.574 69.5628 103.734 69.7007 103.867 69.8826L105.8 72.5728H104.511C104.385 72.5728 104.279 72.5477 104.192 72.5038C104.106 72.4599 104.033 72.3909 103.973 72.3031L102.352 69.9704C102.292 69.8826 102.225 69.8199 102.152 69.7823C102.079 69.7446 101.973 69.7258 101.827 69.7258H101.202V69.7195ZM101.202 68.7476H102.099C102.371 68.7476 102.604 68.7162 102.803 68.6535C103.003 68.5908 103.169 68.503 103.302 68.3901C103.435 68.2772 103.528 68.1456 103.594 67.9888C103.661 67.832 103.687 67.6627 103.687 67.4808C103.687 67.1109 103.561 66.8287 103.302 66.628C103.043 66.4273 102.651 66.3333 102.119 66.3333H101.202V68.7476Z" fill="white"/>
<path d="M109.216 65.2923C109.256 65.2986 109.296 65.3049 109.329 65.3237C109.362 65.3362 109.395 65.3613 109.428 65.3864C109.462 65.4177 109.495 65.4554 109.535 65.4992L113.588 70.3717C113.575 70.2526 113.562 70.1397 113.562 70.0268C113.555 69.9139 113.555 69.8073 113.555 69.7133V65.286H114.817V72.5728H114.073C113.96 72.5728 113.867 72.554 113.787 72.5226C113.714 72.4913 113.641 72.4285 113.568 72.3408L109.535 67.4871C109.548 67.5937 109.555 67.7003 109.561 67.8069C109.568 67.9135 109.568 68.0076 109.568 68.0954V72.5665H108.305V65.2798H109.056C109.123 65.2861 109.176 65.286 109.216 65.2923Z" fill="white"/>
<path d="M124.752 72.5665H123.642C123.516 72.5665 123.416 72.5352 123.336 72.4787C123.256 72.4223 123.197 72.347 123.163 72.2592L122.585 70.773H119.389L118.811 72.2592C118.784 72.3345 118.725 72.4097 118.645 72.4725C118.565 72.5352 118.459 72.5665 118.339 72.5665H117.223L120.253 65.2798H121.721L124.752 72.5665ZM119.755 69.8199H122.213L121.276 67.3931C121.236 67.2865 121.183 67.161 121.137 67.0105C121.09 66.86 121.037 66.7033 120.984 66.534C120.931 66.7033 120.884 66.8663 120.838 67.0105C120.791 67.161 120.745 67.2864 120.698 67.3993L119.755 69.8199Z" fill="white"/>
<path d="M131.795 65.2861V66.4023H129.469V72.5729H128.034V66.4023H125.702V65.2861H131.795Z" fill="white"/>
<path d="M135.915 72.5665H134.473V65.2798H135.915V72.5665Z" fill="white"/>
<path d="M146.647 68.9236C146.647 69.4566 146.554 69.952 146.361 70.4098C146.175 70.8676 145.909 71.2564 145.563 71.5887C145.218 71.9211 144.813 72.1782 144.327 72.3663C143.849 72.5544 143.317 72.6485 142.733 72.6485C142.148 72.6485 141.616 72.5544 141.131 72.3663C140.646 72.1782 140.234 71.9211 139.895 71.5887C139.55 71.2564 139.284 70.8613 139.098 70.4098C138.912 69.952 138.812 69.4629 138.812 68.9236C138.812 68.3906 138.905 67.8952 139.098 67.4374C139.284 66.9797 139.55 66.5909 139.895 66.2585C140.241 65.9262 140.653 65.669 141.131 65.4809C141.616 65.2928 142.148 65.1987 142.733 65.1987C143.317 65.1987 143.849 65.2928 144.327 65.4809C144.806 65.669 145.218 65.9262 145.563 66.2585C145.909 66.5909 146.168 66.9797 146.361 67.4374C146.554 67.8952 146.647 68.3906 146.647 68.9236ZM145.171 68.9236C145.171 68.5223 145.118 68.1648 145.005 67.8513C144.892 67.5315 144.733 67.2618 144.52 67.0424C144.308 66.8229 144.055 66.6536 143.756 66.5344C143.457 66.4153 143.118 66.3588 142.739 66.3588C142.361 66.3588 142.022 66.4153 141.716 66.5344C141.41 66.6536 141.158 66.8229 140.945 67.0424C140.733 67.2618 140.573 67.5315 140.453 67.8513C140.341 68.1711 140.281 68.5286 140.281 68.9236C140.281 69.325 140.334 69.6824 140.453 70.0022C140.573 70.322 140.733 70.5854 140.945 70.8111C141.158 71.0306 141.417 71.1999 141.716 71.3191C142.015 71.4382 142.361 71.4947 142.739 71.4947C143.118 71.4947 143.457 71.4382 143.756 71.3191C144.055 71.1999 144.314 71.0306 144.52 70.8111C144.733 70.5917 144.892 70.322 145.005 70.0022C145.118 69.6824 145.171 69.325 145.171 68.9236Z" fill="white"/>
<path d="M150.281 65.2923C150.321 65.2986 150.361 65.3049 150.394 65.3237C150.427 65.3362 150.461 65.3613 150.494 65.3864C150.527 65.4177 150.56 65.4554 150.6 65.4992L154.654 70.3717C154.64 70.2526 154.627 70.1397 154.627 70.0268C154.62 69.9139 154.62 69.8073 154.62 69.7133V65.286H155.883V72.5728H155.139C155.026 72.5728 154.933 72.554 154.853 72.5226C154.773 72.4913 154.707 72.4285 154.634 72.3408L150.6 67.4871C150.614 67.5937 150.62 67.7003 150.627 67.8069C150.633 67.9135 150.634 68.0076 150.634 68.0954V72.5665H149.371V65.2798H150.122C150.188 65.2861 150.241 65.286 150.281 65.2923Z" fill="white"/>
<path d="M165.824 72.5665H164.714C164.588 72.5665 164.488 72.5352 164.408 72.4787C164.329 72.4223 164.269 72.347 164.236 72.2592L163.658 70.773H160.461L159.883 72.2592C159.857 72.3345 159.797 72.4097 159.717 72.4725C159.637 72.5352 159.531 72.5665 159.411 72.5665H158.295L161.325 65.2798H162.794L165.824 72.5665ZM160.827 69.8199H163.285L162.348 67.3931C162.309 67.2865 162.262 67.161 162.209 67.0105C162.156 66.8663 162.109 66.7033 162.056 66.534C162.003 66.7033 161.956 66.8663 161.91 67.0105C161.863 67.161 161.817 67.2864 161.77 67.3993L160.827 69.8199Z" fill="white"/>
<path d="M169.645 71.4503H172.734V72.5665H168.209V65.2798H169.645V71.4503Z" fill="white"/>
<path d="M180.456 70.0017V72.5665H179.021V65.2798H181.539C182.057 65.2798 182.503 65.3362 182.881 65.4491C183.26 65.562 183.572 65.725 183.818 65.9257C184.064 66.1326 184.243 66.3772 184.363 66.6594C184.483 66.9478 184.536 67.2551 184.536 67.6C184.536 67.9512 184.476 68.2773 184.35 68.572C184.224 68.8667 184.037 69.1175 183.792 69.3308C183.539 69.544 183.233 69.707 182.855 69.8262C182.483 69.9453 182.044 70.0017 181.539 70.0017H180.456ZM180.456 68.9482H181.532C181.798 68.9482 182.024 68.9169 182.223 68.8542C182.416 68.7915 182.582 68.7037 182.708 68.5845C182.835 68.4716 182.934 68.3274 182.994 68.1644C183.061 67.9951 183.087 67.8132 183.087 67.6063C183.087 67.4119 183.054 67.2363 182.994 67.0795C182.934 66.9227 182.835 66.7848 182.708 66.6782C182.582 66.5653 182.416 66.4838 182.223 66.4211C182.031 66.3646 181.798 66.3333 181.532 66.3333H180.456V68.9482Z" fill="white"/>
<path d="M188.722 69.7195V72.5665H187.287V65.2798H189.639C190.164 65.2798 190.616 65.33 190.995 65.4366C191.373 65.5369 191.679 65.6811 191.918 65.8692C192.158 66.0511 192.337 66.2769 192.443 66.534C192.556 66.7911 192.609 67.0732 192.609 67.3805C192.609 67.6251 192.57 67.8571 192.496 68.0766C192.417 68.2961 192.31 68.4904 192.164 68.6723C192.018 68.8479 191.845 69.0047 191.633 69.1426C191.42 69.2743 191.181 69.3872 190.908 69.4624C191.088 69.5628 191.247 69.7007 191.38 69.8826L193.314 72.5728H192.025C191.898 72.5728 191.792 72.5477 191.706 72.5038C191.619 72.4536 191.546 72.3909 191.486 72.3031L189.865 69.9704C189.805 69.8826 189.739 69.8199 189.666 69.7823C189.593 69.7446 189.486 69.7258 189.34 69.7258H188.722V69.7195ZM188.722 68.7476H189.619C189.892 68.7476 190.124 68.7162 190.324 68.6535C190.523 68.5908 190.689 68.503 190.822 68.3901C190.955 68.2772 191.048 68.1456 191.114 67.9888C191.181 67.832 191.207 67.6627 191.207 67.4808C191.207 67.1109 191.081 66.8287 190.822 66.628C190.563 66.4273 190.171 66.3333 189.639 66.3333H188.722V68.7476Z" fill="white"/>
<path d="M200.69 65.2861V66.3647H197.267V68.3839H199.965V69.4249H197.267V71.488H200.69V72.5729H195.819V65.2861H200.69Z" fill="white"/>
<path d="M205.009 70.0017V72.5665H203.573V65.2798H206.092C206.61 65.2798 207.055 65.3362 207.434 65.4491C207.813 65.562 208.125 65.725 208.371 65.9257C208.617 66.1326 208.796 66.3772 208.916 66.6594C209.036 66.9478 209.089 67.2551 209.089 67.6C209.089 67.9512 209.029 68.2773 208.903 68.572C208.776 68.8667 208.59 69.1175 208.345 69.3308C208.092 69.544 207.786 69.707 207.408 69.8262C207.035 69.9453 206.597 70.0017 206.092 70.0017H205.009ZM205.009 68.9482H206.085C206.351 68.9482 206.577 68.9169 206.776 68.8542C206.969 68.7915 207.135 68.7037 207.261 68.5845C207.388 68.4716 207.487 68.3274 207.547 68.1644C207.614 67.9951 207.64 67.8132 207.64 67.6063C207.64 67.4119 207.607 67.2363 207.547 67.0795C207.487 66.9227 207.388 66.7848 207.261 66.6782C207.135 66.5653 206.969 66.4838 206.776 66.4211C206.584 66.3646 206.351 66.3333 206.085 66.3333H205.009V68.9482Z" fill="white"/>
<path d="M211.547 69.0044H214.312V70.0453H211.547V69.0044Z" fill="white"/>
<path d="M221.349 66.6091C221.309 66.6844 221.262 66.7345 221.209 66.7659C221.156 66.7972 221.096 66.8098 221.023 66.8098C220.95 66.8098 220.87 66.7847 220.784 66.7345C220.697 66.6844 220.591 66.6279 220.472 66.5589C220.352 66.4962 220.212 66.4398 220.046 66.3834C219.887 66.3332 219.694 66.3081 219.475 66.3081C219.275 66.3081 219.103 66.3332 218.956 66.3771C218.81 66.421 218.684 66.4837 218.584 66.5652C218.485 66.6467 218.405 66.7408 218.358 66.8537C218.312 66.9665 218.285 67.092 218.285 67.2236C218.285 67.393 218.339 67.5372 218.438 67.6501C218.538 67.763 218.677 67.8633 218.844 67.9448C219.01 68.0263 219.202 68.0953 219.415 68.1643C219.628 68.2333 219.847 68.296 220.066 68.3712C220.285 68.4465 220.505 68.528 220.717 68.6221C220.93 68.7161 221.123 68.8415 221.289 68.9858C221.455 69.13 221.588 69.3118 221.694 69.5251C221.801 69.7383 221.847 69.9954 221.847 70.2964C221.847 70.6225 221.787 70.936 221.668 71.2182C221.548 71.5004 221.375 71.7575 221.143 71.9707C220.91 72.1839 220.631 72.3532 220.299 72.4724C219.967 72.5915 219.588 72.6542 219.162 72.6542C218.917 72.6542 218.677 72.6291 218.438 72.5852C218.199 72.5413 217.973 72.4724 217.754 72.3908C217.534 72.3093 217.328 72.209 217.142 72.0898C216.95 71.9707 216.784 71.839 216.631 71.6948L217.049 71.0426C217.089 70.9924 217.136 70.9548 217.189 70.9235C217.242 70.8921 217.309 70.8733 217.375 70.8733C217.461 70.8733 217.561 70.9046 217.661 70.9736C217.767 71.0426 217.887 71.1179 218.026 71.2056C218.166 71.2872 218.332 71.3687 218.525 71.4377C218.717 71.5066 218.943 71.5443 219.209 71.5443C219.621 71.5443 219.933 71.4502 220.159 71.2684C220.385 71.0865 220.498 70.8231 220.498 70.4782C220.498 70.2838 220.445 70.1333 220.345 70.0079C220.246 69.8888 220.106 69.7884 219.94 69.7006C219.774 69.6191 219.581 69.5501 219.368 69.4937C219.156 69.4373 218.937 69.3746 218.717 69.3056C218.498 69.2366 218.279 69.1551 218.066 69.061C217.853 68.967 217.661 68.8415 217.495 68.691C217.328 68.5405 217.196 68.3524 217.089 68.1267C216.99 67.9009 216.936 67.6187 216.936 67.2864C216.936 67.023 216.99 66.7596 217.103 66.5088C217.216 66.2579 217.382 66.0322 217.594 65.8378C217.807 65.6434 218.073 65.4866 218.385 65.3675C218.697 65.2483 219.056 65.1919 219.461 65.1919C219.92 65.1919 220.339 65.2609 220.724 65.3926C221.109 65.5243 221.435 65.7124 221.707 65.9569L221.349 66.6091Z" fill="white"/>
<path d="M229.841 70.8488C229.921 70.8488 229.987 70.8801 230.04 70.9366L230.605 71.5135C230.293 71.8772 229.907 72.1594 229.449 72.3538C228.99 72.5482 228.445 72.6485 227.801 72.6485C227.229 72.6485 226.711 72.5544 226.253 72.3726C225.794 72.1907 225.402 71.9336 225.083 71.6013C224.757 71.2752 224.512 70.8801 224.339 70.4223C224.166 69.9646 224.08 69.4692 224.08 68.9236C224.08 68.3781 224.173 67.8764 224.365 67.4186C224.558 66.9608 224.831 66.5721 225.176 66.2397C225.528 65.9136 225.94 65.6565 226.425 65.4746C226.91 65.2928 227.449 65.1987 228.033 65.1987C228.605 65.1987 229.11 65.2865 229.535 65.4558C229.967 65.6314 230.333 65.8572 230.638 66.1456L230.16 66.7727C230.133 66.8103 230.093 66.848 230.047 66.8793C230 66.9107 229.941 66.9232 229.861 66.9232C229.781 66.9232 229.695 66.8919 229.608 66.8354C229.522 66.7727 229.416 66.71 229.283 66.641C229.15 66.572 228.984 66.5031 228.784 66.4466C228.585 66.3839 228.326 66.3588 228.02 66.3588C227.655 66.3588 227.322 66.4215 227.017 66.5407C226.711 66.6598 226.452 66.8291 226.233 67.0549C226.013 67.2744 225.841 67.544 225.721 67.8638C225.595 68.1837 225.535 68.5411 225.535 68.9362C225.535 69.3438 225.595 69.7137 225.721 70.0273C225.841 70.3471 226.007 70.6167 226.219 70.8362C226.432 71.0557 226.678 71.225 226.964 71.3379C227.249 71.4508 227.555 71.5135 227.881 71.5135C228.073 71.5135 228.253 71.5009 228.412 71.4821C228.572 71.4633 228.718 71.432 228.851 71.3881C228.984 71.3442 229.11 71.2877 229.23 71.2188C229.349 71.1498 229.469 71.062 229.582 70.9616C229.615 70.9303 229.655 70.9052 229.695 70.8864C229.735 70.8676 229.794 70.8488 229.841 70.8488Z" fill="white"/>
<path d="M239.795 72.5666H238.346V69.3873H234.725V72.5729H233.276V65.2861H234.725V68.4216H238.346V65.2861H239.795V72.5666Z" fill="white"/>
<path d="M250.354 68.9236C250.354 69.4566 250.261 69.952 250.068 70.4098C249.882 70.8676 249.616 71.2564 249.271 71.5887C248.925 71.9211 248.52 72.1782 248.035 72.3663C247.556 72.5544 247.025 72.6485 246.44 72.6485C245.855 72.6485 245.323 72.5544 244.838 72.3663C244.353 72.1782 243.941 71.9211 243.602 71.5887C243.257 71.2564 242.991 70.8613 242.805 70.4098C242.619 69.952 242.519 69.4629 242.519 68.9236C242.519 68.3906 242.612 67.8952 242.805 67.4374C242.991 66.9797 243.257 66.5909 243.602 66.2585C243.948 65.9262 244.36 65.669 244.838 65.4809C245.323 65.2928 245.855 65.1987 246.44 65.1987C247.025 65.1987 247.556 65.2928 248.035 65.4809C248.513 65.669 248.925 65.9262 249.271 66.2585C249.616 66.5909 249.875 66.9797 250.068 67.4374C250.261 67.8952 250.354 68.3906 250.354 68.9236ZM248.879 68.9236C248.879 68.5223 248.825 68.1648 248.712 67.8513C248.599 67.5315 248.44 67.2618 248.227 67.0424C248.015 66.8229 247.762 66.6536 247.463 66.5344C247.164 66.4153 246.825 66.3588 246.446 66.3588C246.068 66.3588 245.729 66.4153 245.43 66.5344C245.131 66.6536 244.872 66.8229 244.659 67.0424C244.446 67.2618 244.287 67.5315 244.167 67.8513C244.054 68.1711 243.994 68.5286 243.994 68.9236C243.994 69.325 244.054 69.6824 244.167 70.0022C244.28 70.322 244.446 70.5854 244.659 70.8111C244.872 71.0306 245.131 71.1999 245.43 71.3191C245.729 71.4382 246.074 71.4947 246.446 71.4947C246.825 71.4947 247.164 71.4382 247.463 71.3191C247.762 71.1999 248.021 71.0306 248.227 70.8111C248.44 70.5917 248.599 70.322 248.712 70.0022C248.825 69.6824 248.879 69.325 248.879 68.9236Z" fill="white"/>
<path d="M260.481 68.9236C260.481 69.4566 260.388 69.952 260.195 70.4098C260.009 70.8676 259.743 71.2564 259.397 71.5887C259.052 71.9211 258.647 72.1782 258.161 72.3663C257.683 72.5544 257.151 72.6485 256.567 72.6485C255.982 72.6485 255.45 72.5544 254.965 72.3663C254.48 72.1782 254.068 71.9211 253.729 71.5887C253.384 71.2564 253.118 70.8613 252.932 70.4098C252.746 69.952 252.646 69.4629 252.646 68.9236C252.646 68.3906 252.739 67.8952 252.932 67.4374C253.118 66.9797 253.384 66.5909 253.729 66.2585C254.075 65.9262 254.487 65.669 254.965 65.4809C255.45 65.2928 255.982 65.1987 256.567 65.1987C257.151 65.1987 257.683 65.2928 258.161 65.4809C258.64 65.669 259.052 65.9262 259.397 66.2585C259.743 66.5909 260.002 66.9797 260.195 67.4374C260.388 67.8952 260.481 68.3906 260.481 68.9236ZM259.005 68.9236C259.005 68.5223 258.952 68.1648 258.839 67.8513C258.726 67.5315 258.567 67.2618 258.354 67.0424C258.142 66.8229 257.889 66.6536 257.59 66.5344C257.291 66.4153 256.952 66.3588 256.573 66.3588C256.195 66.3588 255.856 66.4153 255.557 66.5344C255.258 66.6536 254.998 66.8229 254.786 67.0424C254.573 67.2618 254.414 67.5315 254.294 67.8513C254.181 68.1711 254.121 68.5286 254.121 68.9236C254.121 69.325 254.181 69.6824 254.294 70.0022C254.407 70.322 254.573 70.5854 254.786 70.8111C254.998 71.0306 255.258 71.1999 255.557 71.3191C255.856 71.4382 256.201 71.4947 256.573 71.4947C256.952 71.4947 257.291 71.4382 257.59 71.3191C257.889 71.1999 258.148 71.0306 258.354 70.8111C258.567 70.5917 258.726 70.322 258.839 70.0022C258.952 69.6824 259.005 69.325 259.005 68.9236Z" fill="white"/>
<path d="M264.64 71.4503H267.73V72.5665H263.205V65.2798H264.64V71.4503Z" fill="white"/>
<path d="M109.322 36.9481H81.6061C82.1577 39.3248 83.4667 41.206 85.5333 42.5856C87.5999 43.9652 90.1714 44.655 93.2414 44.655C95.3545 44.655 97.235 44.3603 98.8696 43.7645L98.9161 43.7457C102.146 42.5668 105.807 43.3695 108.153 45.7712L109.714 47.364C105.887 51.5028 100.292 53.5722 92.9357 53.5722C88.3507 53.5722 84.2907 52.7256 80.7689 51.0387C77.2404 49.3519 74.5227 47.0066 72.6023 44.0154C70.6886 41.0179 69.7317 37.6191 69.7317 33.8127C69.7317 30.0564 70.6753 26.6702 72.5691 23.6476C74.4562 20.6251 77.0544 18.2735 80.3569 16.5866C83.6594 14.8998 87.3473 14.0532 91.4273 14.0532C95.4076 14.0532 99.0092 14.8622 102.239 16.48C105.461 18.0979 107.993 20.4181 109.834 23.4344C111.674 26.457 112.591 29.9624 112.591 33.9569C112.591 33.9569 112.591 33.9569 112.591 33.9632C112.585 35.625 111.09 36.9481 109.322 36.9481ZM84.7824 24.6071C82.9683 26.0368 81.8586 27.9871 81.46 30.4578H101.488C101.082 28.031 99.9793 26.0933 98.1653 24.6447C96.3512 23.1961 94.1318 22.4687 91.5137 22.4687C88.8358 22.4687 86.5965 23.1773 84.7824 24.6071Z" fill="white"/>
<path d="M145.756 43.9337C145.497 43.5198 145.251 43.1122 145.038 42.6795C144.434 42.8802 143.836 43.1184 143.258 43.3944C141.895 44.0403 140.347 44.3601 138.62 44.3601C135.543 44.3601 132.998 43.4132 130.985 41.5068C128.964 39.6068 127.961 37.0169 127.961 33.7372C127.961 30.4513 128.964 27.8615 130.985 25.9614C132.998 24.055 135.543 23.1081 138.62 23.1081C140.321 23.1081 141.856 23.4279 143.218 24.0738C143.803 24.3498 144.407 24.5943 145.025 24.795C145.244 24.3686 145.497 23.9484 145.756 23.5346C147.284 21.1391 149.291 19.1701 151.763 17.6211C151.185 17.2198 150.574 16.8498 149.923 16.5049C146.72 14.8181 142.972 13.9778 138.693 13.9778C134.36 13.9778 130.473 14.8181 127.017 16.5049C123.562 18.1918 120.871 20.5371 118.931 23.5346C116.99 26.532 116.02 29.9246 116.02 33.7372C116.02 37.5436 116.99 40.9362 118.931 43.9337C120.871 46.9311 123.569 49.2764 127.017 50.9633C130.473 52.6501 134.36 53.4904 138.693 53.4904C142.972 53.4904 146.72 52.6313 149.923 50.9319C150.554 50.587 151.158 50.2296 151.73 49.8345C149.271 48.2856 147.278 46.3103 145.756 43.9337Z" fill="white"/>
<path d="M191.48 23.5409C189.566 20.5435 186.915 18.1981 183.539 16.5113C180.163 14.8244 176.329 13.9841 172.05 13.9841C167.771 13.9841 163.923 14.8244 160.528 16.5113C159.843 16.8562 159.185 17.2262 158.554 17.6275C156.082 19.1701 154.076 21.1455 152.547 23.5409C152.288 23.9548 152.042 24.3749 151.816 24.8014C150.394 27.479 149.683 30.4514 149.683 33.7436C149.683 37.0295 150.394 40.0082 151.83 42.6859C152.042 43.1123 152.295 43.5261 152.547 43.94C154.069 46.3167 156.062 48.292 158.521 49.8346C159.159 50.2485 159.83 50.6247 160.534 50.9696C163.937 52.6565 167.777 53.4968 172.057 53.4968C176.336 53.4968 180.17 52.6565 183.546 50.9696C186.921 49.2828 189.573 46.9375 191.486 43.94C193.4 40.9426 194.364 37.55 194.364 33.7436C194.357 29.9309 193.394 26.5384 191.48 23.5409ZM179.506 41.4756C177.565 43.4007 175.08 44.3664 172.057 44.3664C169.033 44.3664 166.541 43.4007 164.575 41.4756C162.608 39.5504 161.631 36.9731 161.631 33.7436C161.631 30.5016 162.608 27.9242 164.575 25.9991C166.541 24.0739 169.033 23.1082 172.057 23.1082C175.08 23.1082 177.565 24.0739 179.506 25.9991C181.439 27.9242 182.416 30.5016 182.416 33.7436C182.416 36.9731 181.433 39.5504 179.506 41.4756Z" fill="white"/>
<path d="M210.803 0V41.7953C210.803 47.9407 205.527 52.9197 199.015 52.9197V11.1245C199.008 4.97905 204.291 0 210.803 0Z" fill="white"/>
<path d="M255.012 36.8727H227.296C227.847 39.2493 229.163 41.1306 231.223 42.5102C233.29 43.8898 235.861 44.5796 238.931 44.5796C241.044 44.5796 242.925 44.2848 244.559 43.6891L244.606 43.6703C247.835 42.4914 251.497 43.294 253.842 45.6958L255.404 47.2886C251.576 51.4273 245.981 53.4967 238.625 53.4967C234.04 53.4967 229.98 52.6501 226.459 50.9633C222.93 49.2764 220.212 46.9311 218.299 43.9399C216.385 40.9425 215.428 37.5436 215.428 33.7372C215.428 29.981 216.372 26.5947 218.265 23.5722C220.153 20.5496 222.751 18.1981 226.053 16.5112C229.356 14.8243 233.044 13.9778 237.124 13.9778C241.104 13.9778 244.706 14.7867 247.935 16.4046C251.158 18.0225 253.689 20.3427 255.53 23.359C257.371 26.3815 258.288 29.8869 258.288 33.8815C258.288 33.8815 258.288 33.8815 258.288 33.8878C258.268 35.5495 256.773 36.8727 255.012 36.8727ZM230.465 24.5316C228.651 25.9614 227.542 27.9116 227.143 30.3823H247.171C246.765 27.9555 245.656 26.0178 243.842 24.5692C242.028 23.1207 239.808 22.3933 237.19 22.3933C234.526 22.3933 232.286 23.1081 230.465 24.5316Z" fill="white"/>
<path d="M268.78 60.2192H69.7383V60.6394H268.78V60.2192Z" fill="#D19C2A"/>
<path d="M16.1472 41.3064V29.6363H32.6531V14.0532H45.0193V41.3064H16.1472Z" fill="#D19C2A"/>
<path d="M0 41.3064V14.0532H28.8788V25.7233H12.3662V41.3064H0Z" fill="#D19C2A"/>
<path d="M16.1472 72.5665V60.9027H32.6531V45.3196H45.0193V72.5665H16.1472Z" fill="#D19C2A"/>
<path d="M0 72.5665V45.3196H28.8788V56.9834H12.3662V72.5665H0Z" fill="#D19C2A"/>
<path d="M86.0715 9.05512C85.1745 7.23657 86.0317 5.07939 87.9653 4.25164L91.8393 2.6024L97.9593 0L98.4842 1.09112C99.8065 3.85657 98.0124 7.06099 94.8494 7.58774L86.0715 9.05512Z" fill="white"/>
</svg>
