<svg width="269" height="74" viewBox="0 0 269 74" fill="none" xmlns="http://www.w3.org/2000/svg">
<path d="M71.0806 73.0465H69.6387V65.7597H71.0806V73.0465Z" fill="black"/>
<path d="M75.3201 65.7723C75.36 65.7785 75.3998 65.7848 75.4331 65.8036C75.4663 65.8162 75.4995 65.8412 75.5327 65.8663C75.5659 65.8977 75.5992 65.9353 75.639 65.9792L79.6924 70.8517C79.6791 70.7325 79.6659 70.6196 79.6659 70.5068C79.6592 70.3939 79.6592 70.2873 79.6592 70.1932V65.766H80.9217V73.0527H80.1775C80.0646 73.0527 79.9715 73.0339 79.8918 73.0026C79.8187 72.9712 79.7456 72.9085 79.6725 72.8207L75.639 67.9671C75.6523 68.0737 75.659 68.1803 75.6656 68.2869C75.6723 68.3935 75.6723 68.4876 75.6723 68.5753V73.0465H74.4097V65.7597H75.1606C75.2204 65.766 75.2736 65.766 75.3201 65.7723Z" fill="black"/>
<path d="M89.507 65.766V66.8822H87.1812V73.0527H85.7459V66.8822H83.4136V65.766H89.507Z" fill="black"/>
<path d="M96.8828 65.766V66.8446H93.4607V68.8638H96.1585V69.9048H93.4607V71.9679H96.8828V73.0527H92.0121V65.766H96.8828Z" fill="black"/>
<path d="M101.202 70.1995V73.0465H99.7667V65.7597H102.119C102.644 65.7597 103.096 65.8099 103.475 65.9165C103.847 66.0168 104.159 66.1611 104.398 66.3492C104.637 66.5311 104.817 66.7568 104.93 67.0139C105.043 67.271 105.096 67.5532 105.096 67.8605C105.096 68.105 105.056 68.3371 104.983 68.5565C104.91 68.776 104.797 68.9704 104.651 69.1523C104.505 69.3341 104.332 69.4846 104.119 69.6226C103.907 69.7543 103.667 69.8671 103.395 69.9424C103.574 70.0427 103.734 70.1807 103.867 70.3625L105.8 73.0527H104.511C104.385 73.0527 104.279 73.0277 104.192 72.9838C104.106 72.9399 104.033 72.8709 103.973 72.7831L102.352 70.4503C102.292 70.3625 102.225 70.2998 102.152 70.2622C102.079 70.2246 101.973 70.2058 101.827 70.2058H101.202V70.1995ZM101.202 69.2275H102.099C102.372 69.2275 102.604 69.1961 102.803 69.1334C103.003 69.0707 103.169 68.983 103.302 68.8701C103.435 68.7572 103.528 68.6255 103.594 68.4687C103.661 68.312 103.687 68.1426 103.687 67.9608C103.687 67.5908 103.561 67.3086 103.302 67.108C103.043 66.9073 102.651 66.8132 102.119 66.8132H101.202V69.2275Z" fill="black"/>
<path d="M109.216 65.7723C109.256 65.7785 109.296 65.7848 109.329 65.8036C109.362 65.8162 109.395 65.8412 109.428 65.8663C109.462 65.8977 109.495 65.9353 109.535 65.9792L113.588 70.8517C113.575 70.7325 113.562 70.6196 113.562 70.5068C113.555 70.3939 113.555 70.2873 113.555 70.1932V65.766H114.817V73.0527H114.073C113.96 73.0527 113.867 73.0339 113.787 73.0026C113.714 72.9712 113.641 72.9085 113.568 72.8207L109.535 67.9671C109.548 68.0737 109.555 68.1803 109.561 68.2869C109.568 68.3935 109.568 68.4876 109.568 68.5753V73.0465H108.305V65.7597H109.056C109.123 65.766 109.176 65.766 109.216 65.7723Z" fill="black"/>
<path d="M124.752 73.0465H123.642C123.516 73.0465 123.416 73.0151 123.336 72.9587C123.256 72.9022 123.197 72.827 123.163 72.7392L122.585 71.253H119.389L118.811 72.7392C118.784 72.8144 118.725 72.8897 118.645 72.9524C118.565 73.0151 118.459 73.0465 118.339 73.0465H117.223L120.253 65.7597H121.721L124.752 73.0465ZM119.755 70.2998H122.213L121.276 67.873C121.236 67.7664 121.183 67.641 121.137 67.4905C121.09 67.34 121.037 67.1832 120.984 67.0139C120.931 67.1832 120.884 67.3462 120.838 67.4905C120.791 67.641 120.745 67.7664 120.698 67.8793L119.755 70.2998Z" fill="black"/>
<path d="M131.795 65.766V66.8822H129.469V73.0527H128.034V66.8822H125.702V65.766H131.795Z" fill="black"/>
<path d="M135.915 73.0465H134.473V65.7597H135.915V73.0465Z" fill="black"/>
<path d="M146.647 69.4034C146.647 69.9365 146.554 70.4319 146.361 70.8896C146.175 71.3474 145.909 71.7362 145.563 72.0686C145.218 72.4009 144.813 72.658 144.327 72.8461C143.849 73.0343 143.317 73.1283 142.733 73.1283C142.148 73.1283 141.616 73.0343 141.131 72.8461C140.646 72.658 140.234 72.4009 139.895 72.0686C139.55 71.7362 139.284 71.3411 139.098 70.8896C138.912 70.4319 138.812 69.9427 138.812 69.4034C138.812 68.8704 138.905 68.375 139.098 67.9173C139.284 67.4595 139.55 67.0707 139.895 66.7383C140.241 66.406 140.653 66.1489 141.131 65.9607C141.616 65.7726 142.148 65.6786 142.733 65.6786C143.317 65.6786 143.849 65.7726 144.327 65.9607C144.806 66.1489 145.218 66.406 145.563 66.7383C145.909 67.0707 146.168 67.4595 146.361 67.9173C146.554 68.375 146.647 68.8704 146.647 69.4034ZM145.171 69.4034C145.171 69.0021 145.118 68.6447 145.005 68.3311C144.892 68.0113 144.733 67.7417 144.52 67.5222C144.308 67.3027 144.055 67.1334 143.756 67.0143C143.457 66.8951 143.118 66.8387 142.739 66.8387C142.361 66.8387 142.022 66.8951 141.716 67.0143C141.41 67.1334 141.158 67.3027 140.945 67.5222C140.733 67.7417 140.573 68.0113 140.453 68.3311C140.341 68.6509 140.281 69.0084 140.281 69.4034C140.281 69.8048 140.334 70.1622 140.453 70.482C140.573 70.8018 140.733 71.0652 140.945 71.291C141.158 71.5104 141.417 71.6798 141.716 71.7989C142.015 71.918 142.361 71.9745 142.739 71.9745C143.118 71.9745 143.457 71.918 143.756 71.7989C144.055 71.6798 144.314 71.5104 144.52 71.291C144.733 71.0715 144.892 70.8018 145.005 70.482C145.118 70.1622 145.171 69.8048 145.171 69.4034Z" fill="black"/>
<path d="M150.281 65.7723C150.321 65.7785 150.361 65.7848 150.394 65.8036C150.427 65.8162 150.461 65.8412 150.494 65.8663C150.527 65.8977 150.56 65.9353 150.6 65.9792L154.654 70.8517C154.64 70.7325 154.627 70.6196 154.627 70.5068C154.62 70.3939 154.62 70.2873 154.62 70.1932V65.766H155.883V73.0527H155.139C155.026 73.0527 154.933 73.0339 154.853 73.0026C154.773 72.9712 154.707 72.9085 154.634 72.8207L150.6 67.9671C150.614 68.0737 150.62 68.1803 150.627 68.2869C150.633 68.3935 150.634 68.4876 150.634 68.5753V73.0465H149.371V65.7597H150.122C150.188 65.766 150.241 65.766 150.281 65.7723Z" fill="black"/>
<path d="M165.824 73.0465H164.714C164.588 73.0465 164.488 73.0151 164.408 72.9587C164.329 72.9022 164.269 72.827 164.236 72.7392L163.658 71.253H160.461L159.883 72.7392C159.857 72.8144 159.797 72.8897 159.717 72.9524C159.637 73.0151 159.531 73.0465 159.411 73.0465H158.295L161.325 65.7597H162.794L165.824 73.0465ZM160.827 70.2998H163.285L162.348 67.873C162.309 67.7664 162.262 67.641 162.209 67.4905C162.156 67.3462 162.109 67.1832 162.056 67.0139C162.003 67.1832 161.956 67.3462 161.91 67.4905C161.863 67.641 161.817 67.7664 161.77 67.8793L160.827 70.2998Z" fill="black"/>
<path d="M169.645 71.9303H172.734V73.0465H168.209V65.7597H169.645V71.9303Z" fill="black"/>
<path d="M180.456 70.4817V73.0465H179.021V65.7597H181.539C182.057 65.7597 182.503 65.8162 182.881 65.929C183.26 66.0419 183.572 66.205 183.818 66.4056C184.064 66.6126 184.243 66.8571 184.363 67.1393C184.483 67.4278 184.536 67.735 184.536 68.0799C184.536 68.4311 184.476 68.7572 184.35 69.0519C184.224 69.3467 184.037 69.5975 183.792 69.8107C183.539 70.0239 183.233 70.187 182.855 70.3061C182.483 70.4253 182.044 70.4817 181.539 70.4817H180.456ZM180.456 69.4282H181.532C181.798 69.4282 182.024 69.3968 182.223 69.3341C182.416 69.2714 182.582 69.1836 182.708 69.0645C182.835 68.9516 182.934 68.8074 182.994 68.6443C183.061 68.475 183.087 68.2932 183.087 68.0862C183.087 67.8918 183.054 67.7162 182.994 67.5595C182.934 67.4027 182.835 67.2647 182.708 67.1581C182.582 67.0452 182.416 66.9637 182.223 66.901C182.031 66.8446 181.798 66.8132 181.532 66.8132H180.456V69.4282Z" fill="black"/>
<path d="M188.722 70.1995V73.0465H187.287V65.7597H189.639C190.164 65.7597 190.616 65.8099 190.995 65.9165C191.373 66.0168 191.679 66.1611 191.918 66.3492C192.158 66.5311 192.337 66.7568 192.443 67.0139C192.556 67.271 192.609 67.5532 192.609 67.8605C192.609 68.105 192.57 68.3371 192.496 68.5565C192.417 68.776 192.31 68.9704 192.164 69.1523C192.018 69.3278 191.845 69.4846 191.633 69.6226C191.42 69.7543 191.181 69.8671 190.908 69.9424C191.088 70.0427 191.247 70.1807 191.38 70.3625L193.314 73.0527H192.025C191.898 73.0527 191.792 73.0277 191.706 72.9838C191.619 72.9336 191.546 72.8709 191.486 72.7831L189.865 70.4503C189.805 70.3625 189.739 70.2998 189.666 70.2622C189.593 70.2246 189.486 70.2058 189.34 70.2058H188.722V70.1995ZM188.722 69.2275H189.619C189.892 69.2275 190.124 69.1961 190.324 69.1334C190.523 69.0707 190.689 68.983 190.822 68.8701C190.955 68.7572 191.048 68.6255 191.114 68.4687C191.181 68.312 191.207 68.1426 191.207 67.9608C191.207 67.5908 191.081 67.3086 190.822 67.108C190.563 66.9073 190.171 66.8132 189.639 66.8132H188.722V69.2275Z" fill="black"/>
<path d="M200.69 65.766V66.8446H197.267V68.8638H199.965V69.9048H197.267V71.9679H200.69V73.0527H195.819V65.766H200.69Z" fill="black"/>
<path d="M205.009 70.4817V73.0465H203.573V65.7597H206.092C206.61 65.7597 207.055 65.8162 207.434 65.929C207.813 66.0419 208.125 66.205 208.371 66.4056C208.617 66.6126 208.796 66.8571 208.916 67.1393C209.036 67.4278 209.089 67.735 209.089 68.0799C209.089 68.4311 209.029 68.7572 208.903 69.0519C208.776 69.3467 208.59 69.5975 208.345 69.8107C208.092 70.0239 207.786 70.187 207.408 70.3061C207.035 70.4253 206.597 70.4817 206.092 70.4817H205.009ZM205.009 69.4282H206.085C206.351 69.4282 206.577 69.3968 206.776 69.3341C206.969 69.2714 207.135 69.1836 207.261 69.0645C207.388 68.9516 207.487 68.8074 207.547 68.6443C207.614 68.475 207.64 68.2932 207.64 68.0862C207.64 67.8918 207.607 67.7162 207.547 67.5595C207.487 67.4027 207.388 67.2647 207.261 67.1581C207.135 67.0452 206.969 66.9637 206.776 66.901C206.584 66.8446 206.351 66.8132 206.085 66.8132H205.009V69.4282Z" fill="black"/>
<path d="M211.547 69.4846H214.312V70.5256H211.547V69.4846Z" fill="black"/>
<path d="M221.349 67.0892C221.309 67.1644 221.262 67.2146 221.209 67.2459C221.156 67.2773 221.096 67.2898 221.023 67.2898C220.95 67.2898 220.87 67.2647 220.784 67.2146C220.697 67.1644 220.591 67.108 220.472 67.039C220.352 66.9763 220.212 66.9198 220.046 66.8634C219.887 66.8132 219.694 66.7881 219.475 66.7881C219.275 66.7881 219.103 66.8132 218.956 66.8571C218.81 66.901 218.684 66.9637 218.584 67.0453C218.485 67.1268 218.405 67.2208 218.358 67.3337C218.312 67.4466 218.285 67.572 218.285 67.7037C218.285 67.873 218.339 68.0172 218.438 68.1301C218.538 68.243 218.677 68.3433 218.844 68.4249C219.01 68.5064 219.202 68.5753 219.415 68.6443C219.628 68.7133 219.847 68.776 220.066 68.8513C220.285 68.9265 220.505 69.008 220.717 69.1021C220.93 69.1962 221.123 69.3216 221.289 69.4658C221.455 69.61 221.588 69.7919 221.694 70.0051C221.801 70.2183 221.847 70.4754 221.847 70.7764C221.847 71.1025 221.787 71.4161 221.668 71.6982C221.548 71.9804 221.375 72.2375 221.143 72.4507C220.91 72.6639 220.631 72.8333 220.299 72.9524C219.967 73.0716 219.588 73.1343 219.162 73.1343C218.917 73.1343 218.677 73.1092 218.438 73.0653C218.199 73.0214 217.973 72.9524 217.754 72.8709C217.534 72.7894 217.328 72.689 217.142 72.5699C216.95 72.4507 216.784 72.319 216.631 72.1748L217.049 71.5227C217.089 71.4725 217.136 71.4349 217.189 71.4035C217.242 71.3722 217.309 71.3533 217.375 71.3533C217.461 71.3533 217.561 71.3847 217.661 71.4537C217.767 71.5226 217.887 71.5979 218.026 71.6857C218.166 71.7672 218.332 71.8487 218.525 71.9177C218.717 71.9867 218.943 72.0243 219.209 72.0243C219.621 72.0243 219.933 71.9303 220.159 71.7484C220.385 71.5665 220.498 71.3032 220.498 70.9583C220.498 70.7639 220.445 70.6134 220.345 70.4879C220.246 70.3688 220.106 70.2685 219.94 70.1807C219.774 70.0992 219.581 70.0302 219.368 69.9738C219.156 69.9173 218.937 69.8546 218.717 69.7856C218.498 69.7166 218.279 69.6351 218.066 69.5411C217.853 69.447 217.661 69.3216 217.495 69.1711C217.328 69.0206 217.196 68.8324 217.089 68.6067C216.99 68.3809 216.936 68.0988 216.936 67.7664C216.936 67.503 216.99 67.2397 217.103 66.9888C217.216 66.738 217.382 66.5122 217.594 66.3178C217.807 66.1234 218.073 65.9667 218.385 65.8475C218.697 65.7284 219.056 65.6719 219.461 65.6719C219.92 65.6719 220.339 65.7409 220.724 65.8726C221.109 66.0043 221.435 66.1924 221.707 66.437L221.349 67.0892Z" fill="black"/>
<path d="M229.841 71.3286C229.921 71.3286 229.987 71.3599 230.04 71.4164L230.605 71.9933C230.293 72.357 229.907 72.6392 229.449 72.8336C228.99 73.028 228.445 73.1283 227.801 73.1283C227.229 73.1283 226.711 73.0343 226.253 72.8524C225.794 72.6706 225.402 72.4135 225.083 72.0811C224.757 71.755 224.512 71.3599 224.339 70.9022C224.166 70.4444 224.08 69.949 224.08 69.4034C224.08 68.8579 224.173 68.3562 224.365 67.8984C224.558 67.4407 224.831 67.0519 225.176 66.7195C225.528 66.3934 225.94 66.1363 226.425 65.9545C226.91 65.7726 227.449 65.6786 228.033 65.6786C228.605 65.6786 229.11 65.7664 229.535 65.9357C229.967 66.1112 230.333 66.337 230.638 66.6254L230.16 67.2525C230.133 67.2902 230.093 67.3278 230.047 67.3591C230 67.3905 229.941 67.403 229.861 67.403C229.781 67.403 229.695 67.3717 229.608 67.3152C229.522 67.2525 229.416 67.1898 229.283 67.1208C229.15 67.0519 228.984 66.9829 228.784 66.9265C228.585 66.8637 228.326 66.8387 228.02 66.8387C227.655 66.8387 227.322 66.9014 227.017 67.0205C226.711 67.1397 226.452 67.309 226.233 67.5347C226.013 67.7542 225.841 68.0239 225.721 68.3437C225.595 68.6635 225.535 69.0209 225.535 69.416C225.535 69.8236 225.595 70.1936 225.721 70.5071C225.841 70.8269 226.007 71.0966 226.219 71.3161C226.432 71.5355 226.678 71.7048 226.964 71.8177C227.249 71.9306 227.555 71.9933 227.881 71.9933C228.073 71.9933 228.253 71.9808 228.412 71.9619C228.572 71.9431 228.718 71.9118 228.851 71.8679C228.984 71.824 229.11 71.7676 229.23 71.6986C229.349 71.6296 229.469 71.5418 229.582 71.4415C229.615 71.4101 229.655 71.385 229.695 71.3662C229.735 71.3474 229.794 71.3286 229.841 71.3286Z" fill="black"/>
<path d="M239.795 73.0465H238.346V69.8671H234.725V73.0527H233.276V65.766H234.725V68.9014H238.346V65.766H239.795V73.0465Z" fill="black"/>
<path d="M250.354 69.4034C250.354 69.9365 250.261 70.4319 250.068 70.8896C249.882 71.3474 249.616 71.7362 249.271 72.0686C248.925 72.4009 248.52 72.658 248.035 72.8461C247.556 73.0343 247.025 73.1283 246.44 73.1283C245.855 73.1283 245.323 73.0343 244.838 72.8461C244.353 72.658 243.941 72.4009 243.602 72.0686C243.257 71.7362 242.991 71.3411 242.805 70.8896C242.619 70.4319 242.519 69.9427 242.519 69.4034C242.519 68.8704 242.612 68.375 242.805 67.9173C242.991 67.4595 243.257 67.0707 243.602 66.7383C243.948 66.406 244.36 66.1489 244.838 65.9607C245.323 65.7726 245.855 65.6786 246.44 65.6786C247.025 65.6786 247.556 65.7726 248.035 65.9607C248.513 66.1489 248.925 66.406 249.271 66.7383C249.616 67.0707 249.875 67.4595 250.068 67.9173C250.261 68.375 250.354 68.8704 250.354 69.4034ZM248.879 69.4034C248.879 69.0021 248.825 68.6447 248.712 68.3311C248.599 68.0113 248.44 67.7417 248.227 67.5222C248.015 67.3027 247.762 67.1334 247.463 67.0143C247.164 66.8951 246.825 66.8387 246.446 66.8387C246.068 66.8387 245.729 66.8951 245.43 67.0143C245.131 67.1334 244.872 67.3027 244.659 67.5222C244.446 67.7417 244.287 68.0113 244.167 68.3311C244.054 68.6509 243.994 69.0084 243.994 69.4034C243.994 69.8048 244.054 70.1622 244.167 70.482C244.28 70.8018 244.446 71.0652 244.659 71.291C244.872 71.5104 245.131 71.6798 245.43 71.7989C245.729 71.918 246.074 71.9745 246.446 71.9745C246.825 71.9745 247.164 71.918 247.463 71.7989C247.762 71.6798 248.021 71.5104 248.227 71.291C248.44 71.0715 248.599 70.8018 248.712 70.482C248.825 70.1622 248.879 69.8048 248.879 69.4034Z" fill="black"/>
<path d="M260.481 69.4034C260.481 69.9365 260.388 70.4319 260.195 70.8896C260.009 71.3474 259.743 71.7362 259.397 72.0686C259.052 72.4009 258.647 72.658 258.161 72.8461C257.683 73.0343 257.151 73.1283 256.567 73.1283C255.982 73.1283 255.45 73.0343 254.965 72.8461C254.48 72.658 254.068 72.4009 253.729 72.0686C253.384 71.7362 253.118 71.3411 252.932 70.8896C252.746 70.4319 252.646 69.9427 252.646 69.4034C252.646 68.8704 252.739 68.375 252.932 67.9173C253.118 67.4595 253.384 67.0707 253.729 66.7383C254.075 66.406 254.487 66.1489 254.965 65.9607C255.45 65.7726 255.982 65.6786 256.567 65.6786C257.151 65.6786 257.683 65.7726 258.161 65.9607C258.64 66.1489 259.052 66.406 259.397 66.7383C259.743 67.0707 260.002 67.4595 260.195 67.9173C260.388 68.375 260.481 68.8704 260.481 69.4034ZM259.005 69.4034C259.005 69.0021 258.952 68.6447 258.839 68.3311C258.726 68.0113 258.567 67.7417 258.354 67.5222C258.142 67.3027 257.889 67.1334 257.59 67.0143C257.291 66.8951 256.952 66.8387 256.573 66.8387C256.195 66.8387 255.856 66.8951 255.557 67.0143C255.258 67.1334 254.998 67.3027 254.786 67.5222C254.573 67.7417 254.414 68.0113 254.294 68.3311C254.181 68.6509 254.121 69.0084 254.121 69.4034C254.121 69.8048 254.181 70.1622 254.294 70.482C254.407 70.8018 254.573 71.0652 254.786 71.291C254.998 71.5104 255.258 71.6798 255.557 71.7989C255.856 71.918 256.201 71.9745 256.573 71.9745C256.952 71.9745 257.291 71.918 257.59 71.7989C257.889 71.6798 258.148 71.5104 258.354 71.291C258.567 71.0715 258.726 70.8018 258.839 70.482C258.952 70.1622 259.005 69.8048 259.005 69.4034Z" fill="black"/>
<path d="M264.64 71.9303H267.73V73.0465H263.205V65.7597H264.64V71.9303Z" fill="black"/>
<path d="M109.322 37.428H81.6061C82.1577 39.8046 83.4667 41.6859 85.5333 43.0655C87.5999 44.4451 90.1714 45.1349 93.2414 45.1349C95.3545 45.1349 97.235 44.8401 98.8696 44.2444L98.9161 44.2256C102.146 43.0466 105.807 43.8493 108.153 46.2511L109.714 47.8439C105.887 51.9826 100.292 54.052 92.9357 54.052C88.3507 54.052 84.2907 53.2054 80.7689 51.5186C77.2404 49.8317 74.5227 47.4864 72.6023 44.4952C70.6886 41.4978 69.7317 38.0989 69.7317 34.2925C69.7317 30.5363 70.6753 27.15 72.5691 24.1275C74.4562 21.1049 77.0544 18.7534 80.3569 17.0665C83.6594 15.3796 87.3473 14.5331 91.4273 14.5331C95.4076 14.5331 99.0092 15.342 102.239 16.9599C105.461 18.5778 107.993 20.898 109.834 23.9143C111.674 26.9368 112.591 30.4422 112.591 34.4368C112.591 34.4368 112.591 34.4368 112.591 34.4431C112.585 36.1048 111.09 37.428 109.322 37.428ZM84.7824 25.0869C82.9683 26.5167 81.8586 28.4669 81.46 30.9376H101.488C101.082 28.5108 99.9793 26.5731 98.1653 25.1245C96.3512 23.676 94.1318 22.9486 91.5137 22.9486C88.8358 22.9486 86.5965 23.6572 84.7824 25.0869Z" fill="black"/>
<path d="M145.756 44.4137C145.497 43.9999 145.251 43.5922 145.038 43.1596C144.434 43.3602 143.836 43.5985 143.258 43.8744C141.895 44.5203 140.347 44.8401 138.62 44.8401C135.543 44.8401 132.998 43.8933 130.985 41.9869C128.964 40.0868 127.961 37.497 127.961 34.2173C127.961 30.9314 128.964 28.3415 130.985 26.4415C132.998 24.5351 135.543 23.5882 138.62 23.5882C140.321 23.5882 141.856 23.908 143.218 24.5539C143.803 24.8298 144.407 25.0744 145.025 25.2751C145.244 24.8487 145.497 24.4285 145.756 24.0146C147.284 21.6192 149.291 19.6501 151.763 18.1012C151.185 17.6999 150.574 17.3299 149.923 16.985C146.72 15.2981 142.972 14.4579 138.693 14.4579C134.36 14.4579 130.473 15.2981 127.017 16.985C123.562 18.6719 120.871 21.0172 118.931 24.0146C116.99 27.0121 116.02 30.4046 116.02 34.2173C116.02 38.0237 116.99 41.4163 118.931 44.4137C120.871 47.4112 123.569 49.7565 127.017 51.4434C130.473 53.1302 134.36 53.9705 138.693 53.9705C142.972 53.9705 146.72 53.1114 149.923 51.412C150.554 51.0671 151.158 50.7097 151.73 50.3146C149.271 48.7657 147.278 46.7904 145.756 44.4137Z" fill="black"/>
<path d="M191.48 24.0209C189.566 21.0234 186.915 18.6781 183.539 16.9913C180.163 15.3044 176.329 14.4641 172.05 14.4641C167.771 14.4641 163.923 15.3044 160.528 16.9913C159.843 17.3362 159.185 17.7061 158.554 18.1075C156.082 19.6501 154.076 21.6254 152.547 24.0209C152.288 24.4348 152.042 24.8549 151.816 25.2813C150.394 27.959 149.683 30.9314 149.683 34.2236C149.683 37.5095 150.394 40.4882 151.83 43.1658C152.042 43.5922 152.295 44.0061 152.547 44.42C154.069 46.7967 156.062 48.772 158.521 50.3146C159.159 50.7285 159.83 51.1047 160.534 51.4496C163.937 53.1365 167.777 53.9768 172.057 53.9768C176.336 53.9768 180.17 53.1365 183.546 51.4496C186.921 49.7628 189.573 47.4175 191.486 44.42C193.4 41.4225 194.364 38.03 194.364 34.2236C194.357 30.4109 193.394 27.0184 191.48 24.0209ZM179.506 41.9555C177.565 43.8807 175.08 44.8464 172.057 44.8464C169.033 44.8464 166.541 43.8807 164.575 41.9555C162.608 40.0304 161.631 37.4531 161.631 34.2236C161.631 30.9816 162.608 28.4042 164.575 26.4791C166.541 24.5539 169.033 23.5882 172.057 23.5882C175.08 23.5882 177.565 24.5539 179.506 26.4791C181.439 28.4042 182.416 30.9816 182.416 34.2236C182.416 37.4531 181.433 40.0304 179.506 41.9555Z" fill="black"/>
<path d="M210.803 0.480103V42.2754C210.803 48.4208 205.527 53.3998 199.015 53.3998V11.6046C199.008 5.45916 204.291 0.480103 210.803 0.480103Z" fill="black"/>
<path d="M255.012 37.3527H227.296C227.847 39.7294 229.163 41.6107 231.223 42.9903C233.29 44.3698 235.861 45.0596 238.931 45.0596C241.044 45.0596 242.925 44.7649 244.559 44.1692L244.606 44.1503C247.835 42.9714 251.497 43.7741 253.842 46.1758L255.404 47.7686C251.576 51.9074 245.981 53.9768 238.625 53.9768C234.04 53.9768 229.98 53.1302 226.459 51.4434C222.93 49.7565 220.212 47.4112 218.299 44.42C216.385 41.4225 215.428 38.0237 215.428 34.2173C215.428 30.4611 216.372 27.0748 218.265 24.0523C220.153 21.0297 222.751 18.6781 226.053 16.9913C229.356 15.3044 233.044 14.4579 237.124 14.4579C241.104 14.4579 244.706 15.2668 247.935 16.8847C251.158 18.5026 253.689 20.8228 255.53 23.8391C257.371 26.8616 258.288 30.367 258.288 34.3615C258.288 34.3615 258.288 34.3616 258.288 34.3678C258.268 36.0296 256.773 37.3527 255.012 37.3527ZM230.465 25.0117C228.651 26.4415 227.542 28.3917 227.143 30.8624H247.171C246.765 28.4356 245.656 26.4979 243.842 25.0493C242.028 23.6008 239.808 22.8733 237.19 22.8733C234.526 22.8733 232.286 23.5882 230.465 25.0117Z" fill="black"/>
<path d="M268.78 60.6991H69.7383V61.1193H268.78V60.6991Z" fill="#D19C2A"/>
<path d="M16.1472 41.7862V30.1161H32.6531V14.5331H45.0193V41.7862H16.1472Z" fill="#D19C2A"/>
<path d="M0 41.7862V14.5331H28.8788V26.2031H12.3662V41.7862H0Z" fill="#D19C2A"/>
<path d="M16.1472 73.0464V61.3826H32.6531V45.7996H45.0193V73.0464H16.1472Z" fill="#D19C2A"/>
<path d="M0 73.0464V45.7996H28.8788V57.4634H12.3662V73.0464H0Z" fill="#D19C2A"/>
<path d="M86.0715 9.53522C85.1745 7.71667 86.0317 5.55949 87.9653 4.73174L91.8393 3.0825L97.9593 0.480103L98.4842 1.57123C99.8065 4.33667 98.0124 7.54109 94.8494 8.06784L86.0715 9.53522Z" fill="#D19C2A"/>
</svg>
